<?xml version="1.0" encoding="UTF-8"?>
<svg width="546.162657px" height="415.88133px" viewBox="0 0 546.162657 415.88133" version="1.1" xmlns="http://www.w3.org/2000/svg" xmlns:xlink="http://www.w3.org/1999/xlink">
    <title>Group</title>
    <g id="Page-1" stroke="none" stroke-width="1" fill="none" fill-rule="evenodd">
        <g id="Group" transform="translate(-0.000047, 0.000000)">
            <polygon id="Rectangle" fill="#FF9100" points="454.162704 156 546.162704 156 475.503433 213 546.162704 270 454.162704 270"></polygon>
            <path d="M336.162704,-2.84217094e-14 C405.198298,-5.5314197e-14 461.162704,55.9644063 461.162704,125 C461.162704,155.973134 461.162704,186.946269 461.162704,217.919403 C461.162704,358.699819 377.82937,424.393351 211.162704,415 L211.162704,125 C211.162704,55.9644063 267.12711,-1.52922188e-15 336.162704,-2.84217094e-14 Z" id="Rectangle" fill="#00D0FF"></path>
            <path d="M18.9985039,213.006401 L211.162704,213.006401 L211.162704,213.006401 C211.162704,304.750254 211.162704,372.083587 211.162704,415.006401 C58.9719689,415.006401 12.4881113,276.128329 4.16270377,253.412311 C1.39908582,245.871732 0.0115417997,238.746527 7.17056626e-05,232.036696 C-0.0166635571,221.5433 8.47635157,213.023157 18.9697485,213.006425 C18.9793336,213.00641 18.9889188,213.006402 18.9985039,213.006401 Z" id="Rectangle" fill="#4270A0"></path>
            <circle id="Oval" fill="#4270A0" cx="382.149358" cy="131.986655" r="30.9866546"></circle>
        </g>
    </g>
</svg>