<?xml version="1.0" encoding="UTF-8"?>
<svg width="72.236618px" height="56px" viewBox="0 0 72.236618 56" version="1.1" xmlns="http://www.w3.org/2000/svg" xmlns:xlink="http://www.w3.org/1999/xlink">
    <title>Group</title>
    <g id="Chirper---Home" stroke="none" stroke-width="1" fill="none" fill-rule="evenodd">
        <g id="Large" transform="translate(-34.347560, -20.000000)">
            <g id="Group" transform="translate(34.041297, 20.000000)">
                <polygon id="Rectangle" fill="#FB923C" points="60.1547324 21.0059923 72.5428817 21.0059923 63.0283426 28.6812587 72.5428817 36.3565251 60.1547324 36.3565251"></polygon>
                <path d="M44.2655844,0 C53.5614892,-1.70763001e-15 61.097309,7.53581979 61.097309,16.8317246 C61.097309,21.0023747 61.097309,25.1730249 61.097309,29.343675 C61.097309,48.3002925 49.8761592,57.146176 27.4338598,55.8813256 L27.4338598,16.8317246 C27.4338598,7.53581979 34.9696796,1.70763001e-15 44.2655844,0 Z" id="Rectangle" fill="#22D3EE"></path>
                <path d="M4.38785627,28.6821206 L27.4338598,28.6821206 L27.4338598,28.6821206 C27.4338598,41.0357788 27.4338598,50.1024677 27.4338598,55.8821875 C7.66152686,55.8821875 1.62243184,37.1817279 0.540810615,34.1229299 C0.540810615,34.1229299 0.540810615,34.1229299 0.540810615,34.1229299 C-0.210491798,31.9982652 0.902838264,29.6668333 3.02750291,28.9155309 C3.46440869,28.7610366 3.92443948,28.682096 4.38785627,28.6821206 Z" id="Rectangle" fill="#0369A1"></path>
                <circle id="Oval" fill="#0369A1" cx="51.457862" cy="17.7725042" r="4.17247069"></circle>
            </g>
        </g>
    </g>
</svg>